<svg xmlns="http://www.w3.org/2000/svg" viewBox="0 0 512 512"><rect width="512" height="512" rx="112" fill="#FFF9F1"/><circle cx="174" cy="104" r="34" fill="#5B9DF4"/><circle cx="345" cy="119" r="34" fill="#FFAD18"/><path d="M174 166c-82 0-110 78-65 143 29 42 78 72 147 119-38-49-77-88-101-120-35-47-8-89 36-89 25 0 47 14 65 42" fill="none" stroke="#5B9DF4" stroke-width="40" stroke-linecap="round"/><path d="M345 181c78 0 105 72 63 134-29 42-79 73-152 113 42-45 80-83 104-115 35-46 10-86-34-86-27 0-50 15-70 44" fill="none" stroke="#FFAD18" stroke-width="40" stroke-linecap="round"/><path d="M256 405c-43-43-121-94-121-151 0-35 27-61 61-61 28 0 49 16 60 39 12-23 33-39 61-39 34 0 61 26 61 61 0 57-79 108-122 151z" fill="#FF315A"/></svg>